<?xml version="1.0" standalone="no"?>
<!DOCTYPE svg PUBLIC "-//W3C//DTD SVG 20010904//EN"
 "http://www.w3.org/TR/2001/REC-SVG-20010904/DTD/svg10.dtd">
<svg version="1.0" xmlns="http://www.w3.org/2000/svg"
 width="181.000000pt" height="181.000000pt" viewBox="0 0 181.000000 181.000000"
 preserveAspectRatio="xMidYMid meet">
<metadata>
Created by potrace 1.11, written by Peter Selinger 2001-2013
</metadata>
<g transform="translate(0.000000,181.000000) scale(0.100000,-0.100000)"
fill="#000000" stroke="none">
<path d="M520 1624 c-30 -19 -86 -51 -124 -71 -91 -49 -105 -78 -106 -220 0
-102 0 -103 -49 -201 -26 -55 -66 -122 -88 -150 -41 -51 -86 -150 -98 -213 -6
-31 -1 -41 56 -112 39 -49 71 -79 88 -83 14 -4 39 -20 55 -35 15 -16 37 -29
47 -29 16 0 17 3 7 25 -14 31 -6 40 22 25 29 -15 32 -10 18 28 -13 34 -5 53
14 34 24 -24 37 -14 25 18 -13 35 -1 50 40 50 46 0 73 -18 73 -49 0 -30 -37
-81 -59 -81 -6 0 -11 -9 -11 -20 0 -15 -7 -20 -26 -20 -25 0 -26 -2 -21 -35 3
-19 1 -37 -4 -40 -27 -17 7 -135 45 -153 12 -5 57 -17 99 -27 87 -19 140 -50
145 -83 6 -39 36 -23 40 20 3 36 4 36 40 31 l37 -5 -28 27 c-36 35 -35 80 3
80 16 0 29 -8 36 -24 l12 -23 21 21 c12 12 21 32 21 45 0 21 4 24 33 22 26 -1
33 3 35 21 4 24 18 30 150 58 40 8 87 15 103 15 22 0 29 5 29 19 0 25 39 55
98 77 69 24 209 91 243 115 34 24 38 49 8 49 -12 0 -19 5 -17 13 15 42 144 48
198 9 l30 -23 0 52 c0 87 -72 273 -154 402 -54 84 -160 201 -246 273 -45 38
-86 79 -93 93 -7 14 -41 45 -75 69 l-64 42 -276 0 -277 -1 -55 -35z m325 -6
c-4 -10 21 -12 110 -10 129 4 167 -6 119 -31 l-28 -15 35 -15 c20 -8 47 -18
60 -22 58 -18 217 -111 206 -121 -2 -2 -42 9 -90 25 -47 16 -112 32 -144 35
l-58 6 50 -14 c231 -66 382 -178 461 -342 52 -108 45 -117 -35 -41 -81 77
-167 127 -293 172 -50 17 -87 34 -82 37 5 3 35 9 67 13 37 4 57 11 54 18 -6
20 -148 87 -206 97 -29 6 -86 10 -125 11 -39 0 -80 4 -90 8 -18 7 -17 10 12
36 18 16 32 32 32 37 0 27 -109 -17 -157 -64 -38 -37 -55 -30 -30 11 9 16 17
34 17 41 0 19 -56 -20 -96 -68 -34 -41 -62 -58 -121 -76 -19 -6 -23 -3 -23 13
0 12 -4 21 -8 21 -18 0 -62 -58 -86 -113 -14 -32 -30 -56 -35 -53 -5 4 -24
-25 -42 -64 -17 -38 -38 -75 -45 -81 -27 -22 -15 33 21 98 27 49 35 76 35 116
1 79 15 135 40 163 35 37 52 32 45 -13 l-6 -38 18 25 c10 14 36 52 58 85 26
39 55 68 83 84 55 30 74 17 38 -27 -39 -45 -32 -46 29 -5 86 56 223 96 210 61z
m85 -256 c18 -14 24 -32 28 -75 6 -73 -1 -99 -39 -142 -41 -47 -52 -36 -23 22
25 48 32 117 14 128 -6 3 -22 -3 -38 -13 -43 -31 -95 -42 -142 -30 -22 6 -39
15 -38 20 2 6 25 18 51 28 25 10 65 32 89 49 48 36 67 38 98 13z m-337 -79 c4
-3 -8 -19 -25 -35 l-33 -29 27 5 c14 3 33 8 41 11 17 7 80 -43 71 -56 -3 -5
-14 -9 -25 -9 -10 0 -19 -5 -19 -11 0 -6 11 -8 28 -5 15 2 53 8 85 11 53 6 57
5 57 -14 0 -15 6 -21 22 -21 20 0 20 -1 5 -18 -23 -25 -21 -39 7 -57 42 -28
71 -135 48 -173 -7 -10 -15 -8 -37 9 -26 21 -135 41 -135 25 0 -3 16 -28 36
-56 38 -54 35 -60 -21 -33 -48 23 -53 11 -16 -35 17 -22 31 -46 31 -54 0 -26
-90 -209 -105 -215 -12 -4 -14 -18 -9 -69 6 -61 6 -64 -15 -64 -12 0 -24 -7
-27 -15 -4 -8 -15 -15 -26 -15 -16 0 -19 -5 -16 -25 7 -35 -1 -37 -51 -14 -24
10 -49 19 -57 19 -21 0 -28 22 -10 35 9 7 14 19 11 28 -5 11 5 16 40 22 77 11
109 49 155 185 36 106 38 116 23 132 -21 24 -33 23 -33 -2 0 -17 -4 -19 -27
-14 l-27 7 22 -35 c22 -35 29 -78 15 -91 -4 -4 -18 16 -32 45 -31 64 -78 98
-133 98 -55 0 -94 -24 -119 -71 -25 -49 -34 -45 -20 8 17 63 40 77 139 83 79
5 84 7 59 18 -16 7 -38 12 -50 12 -31 0 -45 11 -73 56 -19 31 -23 34 -19 14 5
-22 -3 -35 -54 -84 -67 -63 -90 -68 -106 -22 -8 23 -5 36 16 75 42 75 95 95
201 78 l47 -8 -10 30 c-13 38 0 83 42 141 l30 41 -43 -6 c-54 -7 -92 11 -96
46 -2 21 6 34 38 59 60 47 155 82 173 63z m632 -98 c133 -34 292 -133 361
-223 19 -25 32 -47 30 -50 -3 -2 -77 17 -166 43 -88 25 -168 45 -177 43 -11
-2 7 -21 55 -58 40 -30 72 -58 72 -62 0 -5 -51 -8 -112 -8 l-113 -1 28 -24 28
-25 -23 -9 c-92 -35 -114 -45 -122 -52 -6 -5 12 -18 40 -31 38 -17 67 -22 132
-22 45 0 82 -3 82 -8 0 -16 -99 -57 -163 -68 -45 -8 -84 -9 -128 -2 -35 5 -68
8 -72 5 -5 -3 3 -18 18 -33 35 -36 25 -54 -23 -45 -20 4 -45 11 -55 17 -25 13
-57 68 -57 97 0 22 2 23 48 17 l47 -6 -32 28 c-18 16 -33 33 -33 38 1 5 20 18
43 29 40 19 42 22 39 60 -2 22 4 60 12 84 9 24 14 47 11 51 -2 4 25 15 60 25
59 16 79 35 36 35 -9 0 -32 16 -51 35 l-33 35 39 16 c31 13 58 15 129 11 87
-5 89 -5 55 9 -28 12 -157 34 -204 34 -5 0 -3 7 4 15 17 20 117 20 195 0z
m-841 -182 c-18 -13 -54 -18 -54 -7 0 3 15 23 33 46 l32 40 3 -33 c3 -23 -2
-37 -14 -46z m-114 2 c14 -17 15 -14 -59 -104 -40 -48 -93 -91 -113 -91 -22 0
54 120 108 173 43 42 47 43 64 22z m-93 -272 c-2 -25 2 -28 31 -31 37 -4 42
-17 10 -27 -23 -6 -22 -7 21 -21 11 -4 11 -7 0 -21 -13 -14 -11 -16 14 -11 22
4 25 3 16 -8 -19 -23 -56 -16 -94 17 -37 33 -43 58 -22 102 16 35 26 34 24 0z
m652 -147 c21 -30 45 -50 76 -62 25 -11 45 -22 45 -26 0 -11 -36 -28 -60 -28
-79 0 -162 104 -118 148 19 19 25 15 57 -32z m-54 -86 c22 -23 25 -30 12 -30
-18 0 -57 34 -57 50 0 18 16 11 45 -20z"/>
</g>
</svg>
